<?xml version="1.0" standalone="no"?>
<!DOCTYPE svg PUBLIC "-//W3C//DTD SVG 20010904//EN"
 "http://www.w3.org/TR/2001/REC-SVG-20010904/DTD/svg10.dtd">
<svg version="1.0" xmlns="http://www.w3.org/2000/svg"
 width="1254.000000pt" height="1254.000000pt" viewBox="0 0 1254.000000 1254.000000"
 preserveAspectRatio="xMidYMid meet">

<g transform="translate(0.000000,1254.000000) scale(0.100000,-0.100000)"
fill="#000000" stroke="none">
<path d="M0 6270 l0 -6270 6270 0 6270 0 0 6270 0 6270 -6270 0 -6270 0 0
-6270z m7000 4305 c558 -68 1042 -231 1505 -508 343 -205 674 -486 920 -782
142 -171 143 -173 14 -45 -242 241 -593 496 -880 641 -722 362 -1482 478
-2264 343 -476 -82 -957 -261 -1370 -511 -607 -367 -1108 -903 -1424 -1523
-229 -449 -349 -869 -381 -1330 -21 -309 25 -754 109 -1045 8 -30 5 -34 -138
-162 -80 -73 -179 -162 -219 -199 -41 -38 -77 -63 -82 -58 -4 5 -33 86 -63
179 -313 966 -226 1942 256 2879 188 366 398 655 697 959 485 496 1046 825
1745 1025 259 74 556 128 840 151 159 14 575 6 735 -14z m335 -2144 c30 -6 29
-6 -110 -151 -77 -80 -250 -261 -384 -403 l-244 -257 -884 0 c-870 0 -884 0
-924 -20 -54 -28 -72 -62 -108 -206 -38 -153 -39 -168 -2 -205 l29 -29 757 0
c468 0 792 -4 851 -11 344 -38 541 -183 609 -449 13 -51 16 -93 12 -195 -4
-118 -11 -154 -70 -390 -75 -299 -101 -378 -158 -483 -56 -105 -120 -182 -214
-258 -131 -105 -272 -170 -477 -217 -92 -21 -105 -21 -1605 -24 -972 -3 -1513
0 -1513 6 0 8 393 388 708 684 l103 96 1032 3 c953 3 1034 4 1063 20 60 33 80
68 115 211 29 121 31 137 19 167 -26 62 -3 60 -837 60 -808 0 -863 3 -1018 50
-216 67 -358 205 -411 400 -21 79 -24 266 -5 355 36 171 125 524 145 578 77
206 197 363 361 474 161 108 372 177 595 193 120 9 2524 10 2565 1z m2792 -9
l81 -7 -326 -392 -327 -393 -462 0 -462 0 -15 -52 c-65 -231 -215 -789 -451
-1673 -97 -363 -183 -684 -191 -712 l-15 -53 -484 0 c-381 0 -485 3 -485 13 0
6 50 188 110 402 123 435 120 423 294 1055 234 852 265 965 271 993 l7 27
-397 0 -397 0 19 24 c21 28 517 549 648 681 l90 91 1205 1 c663 1 1242 -1
1287 -5z m-1596 -3112 c336 -48 669 -119 894 -190 355 -113 601 -280 645 -438
15 -55 12 -145 -6 -199 -74 -217 -410 -497 -894 -743 -755 -383 -1694 -629
-2587 -676 l-131 -7 -16 30 c-30 59 -125 124 -224 153 -44 14 -44 14 -65 106
l-5 22 307 4 c331 5 481 21 842 88 1240 231 2329 740 2409 1126 16 76 5 125
-43 197 -76 113 -256 224 -530 326 -200 75 -385 127 -772 215 -94 22 -54 18
176 -14z m-114 -282 c6 -7 29 -76 51 -153 29 -96 39 -142 31 -150 -12 -12
-183 -14 -195 -2 -10 10 57 287 74 304 17 16 27 16 39 1z m-4732 -200 c225
-334 452 -576 760 -808 219 -165 477 -314 710 -410 55 -23 104 -45 108 -50 9
-8 -19 -128 -33 -143 -5 -5 -39 -20 -76 -33 -38 -13 -88 -37 -112 -54 -23 -16
-47 -30 -52 -30 -20 0 -220 73 -335 122 -211 90 -489 247 -660 371 -235 172
-484 407 -649 612 -123 153 -356 512 -356 547 0 4 136 8 303 8 l303 0 89 -132z
m4610 -133 c53 -19 153 -19 209 0 35 12 50 13 70 4 70 -32 5 -59 -159 -66
-168 -6 -259 23 -188 61 15 8 28 15 28 15 0 1 18 -6 40 -14z m-842 -42 c8 -10
23 -45 32 -78 10 -33 46 -156 81 -273 35 -117 64 -219 64 -226 0 -29 -110 -56
-225 -55 -104 1 -168 16 -173 42 -6 28 129 570 146 590 8 9 25 17 37 17 12 0
29 -8 38 -17z m-1699 -465 c22 -20 36 -65 101 -333 176 -719 169 -687 149
-702 -96 -70 -556 -66 -645 6 l-21 17 47 169 c106 386 178 645 201 730 29 103
55 135 109 135 21 0 44 -9 59 -22z m2034 -190 c36 -22 42 -52 13 -68 -34 -18
-183 -49 -283 -60 -155 -16 -436 14 -473 51 -16 16 8 42 70 75 58 32 59 32 84
13 39 -28 133 -42 251 -36 120 6 168 18 207 51 25 22 29 23 62 9 20 -8 51 -24
69 -35z m-2491 -886 c115 -115 644 -122 756 -10 l31 30 70 -38 c132 -70 146
-81 146 -114 0 -44 -29 -66 -111 -85 -182 -41 -444 -59 -639 -44 -207 16 -439
67 -481 105 -25 23 -24 56 4 82 17 16 109 64 194 101 1 1 14 -12 30 -27z"/>
</g>
</svg>
